<?xml version="1.0" encoding="UTF-8"?>
<svg id="svg1" width="32" height="32" version="1.1" viewBox="0 0 8.4667 8.4667" xml:space="preserve" xmlns="http://www.w3.org/2000/svg" xmlns:xlink="http://www.w3.org/1999/xlink"><style id="style1">#body-light{fill:#6b839e}#body-dark{fill:#536f8e}#whiskers{fill:#333333}@media(prefers-color-scheme:dark){#body-light,#whiskers{fill:#fcfffe}#body-dark{fill:#c6dbe6}}</style><defs id="defs1"><radialGradient id="radialGradient360" cx="737.27" cy="261.81" r="28.663" gradientTransform="matrix(.018067 -.0053153 .008233 .027985 -10.464 1.034)" gradientUnits="userSpaceOnUse"><stop id="stop359" style="stop-color:#004e81" offset="0"/><stop id="stop360" style="stop-color:#1e2938" offset="1"/></radialGradient><linearGradient id="linearGradient3" x1="313.2" x2="354.04" y1="338.08" y2="47.51" gradientTransform="matrix(.028855 0 0 .028855 -5.3932 -1.3297)" gradientUnits="userSpaceOnUse"><stop id="stop2" style="stop-color:#16aefc" offset="0"/><stop id="stop3" style="stop-color:#4fe4ff" offset="1"/></linearGradient></defs><path id="path230" d="m3.9455 3.7318 0.46716 1.456 1.6424-0.033331-0.60703-1.4552z" style="fill:url(#radialGradient360);stroke-linejoin:round;stroke-width:.058878"/><g id="g367" transform="matrix(.036799 0 0 .036799 -2.8489 -1.5516)"><path id="path229" d="m227.14 92.377-6.1879 8.3603-0.18664 2.9558s5.473 1.8178 10.232 5.0952c4.6381 3.1939 7.3599 5.4435 7.3599 5.4435l1.4164-2.7773-2.1941-9.3318-2.7773-7.4154-3.1939-5.1936z" style="fill:#333;stroke-linejoin:round;stroke-width:1.6"/><path id="path228" d="m149.31 147.94 0.80872-34.505 16.04-28.036 29.383 40.571z" style="fill:#333;stroke-linejoin:round;stroke-width:1.6"/></g><g id="g366" transform="matrix(.036799 0 0 .036799 -2.8489 -1.5516)"><path id="path226" d="m109.14 193.99 1.9476-12.52 84.303 0.27823-0.41735 9.4598z" style="fill:#333;stroke-linejoin:round;stroke-width:1.6"/><path id="path227" d="m125.83 211.66 34.361-13.494 35.474-6.2601 0.69559 8.9033-68.166 20.311z" style="fill:#333;stroke-linejoin:round;stroke-width:1.6"/><path id="path225" d="m125.42 155.6 71.783 18.085-3.0605 8.7642-79.573-16.555z" style="fill:#333;stroke-linejoin:round;stroke-width:1.6"/></g><path id="path217" d="m6.1078 5.1294 0.63251-0.00921 0.13049 0.029169 0.018355 0.00623s0.056261 0.2707-0.19487 0.54467c-0.25113 0.27396-0.55608-0.2919-0.55608-0.2919l-0.078276-0.21852z" style="fill:#333;stroke-linejoin:round;stroke-width:.058878"/><path id="body-light" d="m3.2511 1.1382c-0.03844 0.00965-0.10303 0.05711-0.14943 0.1098-0.040255 0.045713-0.14165 0.17695-0.16075 0.20806-0.00535 0.00872-0.059027 0.088664-0.11927 0.17765-0.060244 0.088986-0.10953 0.16429-0.10953 0.16732 0 0.00304-0.021906 0.037984-0.048682 0.077663-0.07923 0.11741-0.13585 0.22463-0.20018 0.35538-0.097191 0.17571-0.16491 0.36246-0.22734 0.55267-0.05018 0.14379-0.19348 0.58421-0.27673 0.75035-0.00894 0.017838-0.01624 0.036932-0.01624 0.042426 0 0.00933-0.048126 0.11165-0.067831 0.14422-0.00486 0.00803-0.020754 0.040134-0.035313 0.071349-0.11098 0.1686-0.2021 0.34926-0.33484 0.50796-0.019043 0.02142-0.056455 0.06852-0.08312 0.10467-0.026665 0.036146-0.35172 0.4322-0.50608 0.60086-0.037485 0.040514-0.11635 0.12822-0.17525 0.1949-0.058905 0.066682-0.11844 0.13306-0.1323 0.14751-0.003404 0.00355-0.024404 0.026964-0.03267 0.03596a3.8401 3.8401 0 0 0 1.4505 1.9787c0.064352-0.00134 0.15065-0.00454 0.15065-0.00454 0.25686 7.36e-5 0.32173 0.00297 0.39919 0.017894 0.050873 0.0098 0.073537 0.012955 0.13144 0.024931s0.19065 0.032062 0.28966 0.057296c0.077656 0.020664 0.12068 0.033329 0.13874 0.040847 0.01071 0.00446 0.061096 0.021895 0.11197 0.038755 0.050873 0.01686 0.10235 0.036926 0.1144 0.044574 0.012049 0.00765 0.021907 0.010115 0.021907 0.0055 0-0.00462 0.025511-0.028199 0.056687-0.052409 0.031176-0.024219 0.084607-0.07861 0.11874-0.12086 0.034132-0.042247 0.095057-0.11091 0.1354-0.15259 0.040339-0.041677 0.10068-0.084114 0.10503-0.091887 0.00985-0.017602 0.25958-0.25526 0.33872-0.31563 0.045524-0.03473 0.19283-0.1038 0.26853-0.18081 0.032392-0.03295 0.028852-0.05781-0.019872-0.10851-0.070935-0.073806-0.15472-0.10751-0.28258-0.20924 0.03997 0.010181 0.067689 0.011209 0.26174 0.078347 0.14312 0.049517 0.21318 0.081832 0.3523 0.095176 0.23708 0.022741 0.75942 0.055812 1.0661-0.011809 0.11774-0.025959 0.30526-0.053087 0.37681-0.07675 0.029653-0.023593 0.028375-0.020971 0.060548-0.046038 0.061379-0.047821 0.1996-0.18034 0.1996-0.18788 0.053284-0.055314 0.082138-0.090166 0.12452-0.15679 0.025653-0.036166 0.054476-0.087665 0.064047-0.11444 0.016284-0.045556 0.021124-0.057993 0.044422-0.1144 0.00498-0.012049 0.017614-0.046866 0.028087-0.077377l0.019035-0.055471-0.02398 0.015707c-0.036766 0.024091-0.12604 0.020632-0.18335-0.0071119-0.059545-0.028825-0.17705-0.1395-0.2443-0.23008-0.10713-0.1443-0.15065-0.25581-0.11725-0.30044 0.014048-0.018774 0.027735-0.019569 0.38048-0.022439 0.29604-0.00241 0.35932 0.00206 0.37213 0.00715 0.00382-0.02166-0.012549-0.049678-0.018009-0.063286-0.090747-0.2304-0.15202-0.38388-0.22103-0.58082-0.0071831-0.022101-0.014974-0.066192-0.020328-0.09029-0.0053554-0.024098-0.013733-0.062434-0.018617-0.085193-0.0083004-0.03868-0.038406-0.15351-0.060624-0.23124-0.031314-0.11515-0.085778-0.22324-0.13745-0.33104-0.1442-0.30083-0.41978-0.61445-0.78522-0.89362-0.02951-0.022543-0.30288-0.16335-0.35633-0.18355-0.16501-0.069943-0.33626-0.12822-0.50871-0.17794-0.095217-0.025146-0.139-0.031218-0.18581-0.034401-0.091748-0.0062371-0.05381-0.0059427-0.19593-0.017514-0.14212-0.011571-0.15391-0.017765-0.16594-0.044745-0.00984-0.02208-0.010496-0.019877-0.029-0.069752-0.026763-0.072138-0.15045-0.31879-0.18642-0.37175-0.020758-0.030568-0.037728-0.05821-0.037728-0.061423 0-0.00321-0.020812-0.03754-0.046248-0.076275-0.025436-0.038734-0.050629-0.07724-0.055984-0.085573-0.2451-0.3814-0.50191-0.64357-0.60504-0.61769zm2.4496 0.026071c-0.00603-4.048e-4 -0.012291-2.576e-4 -0.018883 4.563e-4 -0.026368 0.00282-0.057804 0.01458-0.098524 0.035732-0.17411 0.090442-0.30472 0.18118-0.4752 0.33014-0.12922 0.11292-0.56442 0.5565-0.56442 0.57361 0.04269 0.00526 0.0792 0.0122 0.081694 0.01276 0.13233 0.029718 0.20914-0.019961 0.53063 0.10482 0.013388 0.0052 0.094108 0.031266 0.11912 0.042483 0.016753-0.032433 0.015656-0.029201 0.025862-0.050412 0.025469-0.052933 0.11262-0.16352 0.18039-0.25482 0.037795-0.050918 0.11585-0.13401 0.14954-0.14361 0.02441 0 0.055867 0.047822 0.10889 0.16552 0.073892 0.16403 0.13616 0.3638 0.1563 0.50142 0.00627 0.04284 0.016466 0.097607 0.022667 0.1217 0.0062 0.024097 0.00352 0.041996 0.00352 0.047351 0 0.00815 0.12514 0.081184 0.13496 0.088959 0.00913 0.00723 0.094142 0.071179 0.15029 0.12891l0.063286 0.065074 3e-3 -0.055623c0.00165-0.030587 9.237e-4 -0.099417-0.0016-0.15297-0.00441-0.093681-0.00953-0.13386-0.03596-0.28235-0.01878-0.12704-0.050258-0.25179-0.087147-0.37485-0.019313-0.063386-0.033648-0.12846-0.058988-0.18986-0.0045899-0.01071-0.019108-0.052333-0.032252-0.092495-0.025301-0.077314-0.055973-0.15787-0.081542-0.2142-0.10601-0.23353-0.1756-0.35326-0.22631-0.38938-0.015383-0.010954-0.03123-0.017151-0.049309-0.01837zm-2.4235 0.62193c0.051309 0 0.22995 0.22716 0.37447 0.47619 0.15249 0.26275 0.26779 0.55893 0.26779 0.68792 0 0.029362-0.00305 0.033469-0.024759 0.033469-0.073155 0-0.38608 0.0857-0.49766 0.13629-0.11655 0.052847-0.21557 0.1249-0.34735 0.25276-0.092081 0.089345-0.16984 0.18311-0.22437 0.27058-0.014188 0.022759-0.029901 0.041379-0.034933 0.041379-0.012569 0-0.0165-0.26934-0.0078-0.5348 0.0082-0.25019 0.027558-0.40572 0.069143-0.55568 0.049636-0.17899 0.14881-0.39914 0.24782-0.5501 0.03161-0.048195 0.082157-0.12596 0.11231-0.17282 0.030154-0.046856 0.059552-0.085193 0.06534-0.085193zm1.5818 1.9629c0.17559 6.072e-4 0.25805 0.017285 0.37538 0.075894 0.14805 0.073947 0.25878 0.19442 0.34899 0.37966 0.037003 0.07599 0.1836 0.64452 0.17318 0.67166-0.00394 0.010259-0.015632 0.012775-0.042673 0.00915-0.02049-0.00275-0.089778 0.00214-0.15398 0.010877-0.10951 0.014906-0.14267 0.0204-0.27737 0.045826-0.076245 0.014393-0.34904 0.019124-0.38459 0.00668-0.1628-0.057012-0.21756-0.087118-0.32041-0.17619-0.11694-0.10128-0.18805-0.22105-0.27785-0.46793-0.073421-0.20186-0.090944-0.23961-0.1275-0.27463-0.052481-0.05028-0.04261-0.065642 0.080724-0.12572 0.10562-0.051446 0.28548-0.11624 0.39676-0.14295 0.033462-0.0080295 0.11199-0.012654 0.20933-0.012322zm-3.0626 0.56903c0.036995-3.311e-4 0.081204 0.00261 0.12517 0.00894 0.035839 0.00516 0.10022 0.014189 0.14306 0.020062 0.075876 0.010403 0.23315 0.039453 0.31156 0.057544 0.02142 0.00494 0.11255 0.022595 0.2025 0.03923 0.089957 0.016636 0.28493 0.060137 0.43327 0.09666s0.342 0.082907 0.43036 0.10309c0.088357 0.02018 0.22637 0.055591 0.3067 0.07869 0.080325 0.023098 0.20519 0.057273 0.27749 0.075932 0.17013 0.043911 0.21292 0.059801 0.24569 0.091202 0.049635 0.047553 0.02893 0.13239-0.041037 0.16809-0.034682 0.017692-0.12226 0.016376-0.13791 0.014928-0.00913-8.427e-4 -0.083829-0.012278-0.14932-0.024341-0.06933-0.012773-0.13189-0.029078-0.25334-0.052411-0.26843-0.051574-0.34166-0.07023-0.45761-0.092952-0.11384-0.022308-0.22742-0.045904-0.34077-0.07057-0.14515-0.030017-0.2891-0.065421-0.43327-0.099759-0.16675-0.035953-0.33394-0.070373-0.50142-0.10284-0.094018-0.018-0.21037-0.049083-0.23883-0.0638-0.045845-0.023707-0.060859-0.055369-0.05374-0.10936 0.00626-0.047519 0.028612-0.10584 0.054615-0.11769 0.015108-0.00688 0.039831-0.020286 0.076826-0.020632zm1.2232 0.87614c0.1754-0.00144 0.35782-0.00131 0.52489 1.84e-4 0.33413 0.00298 0.60681 0.011452 0.63891 0.02377 0.043223 0.016586 0.05432 0.11721 0.019188 0.17406-0.040809 0.06603-0.092915 0.071761-0.76024 0.083672-0.2972 0.0053-0.62361 0.012064-0.72536 0.015004-0.41451 0.011979-0.50691 0.014425-0.73996 0.019643-0.13387 3e-3 -0.25874 0.00691-0.27749 0.00871-0.051716 0.0049535-0.21524-0.010299-0.24828-0.023162-0.090682-0.035312-0.13032-0.13531-0.074734-0.18857 0.054738-0.052443 0.18162-0.071139 0.57129-0.084148 0.17136-0.00572 0.43643-0.014685 0.58905-0.019929 0.13896-0.00477 0.30733-0.00778 0.48273-0.00922zm1.1419 0.39006c0.028004-0.00232 0.054156 3.68e-5 0.080097 0.014148v1.92e-5c0.044545 0.024223 0.057831 0.07526 0.057905 0.10543 3.68e-5 0.029747-0.034346 0.074756-0.069904 0.095481-0.028234 0.016457-0.15321 0.051977-0.30048 0.095481-0.14726 0.043505-0.31594 0.093697-0.37485 0.11155-0.058905 0.017853-0.1772 0.052997-0.26288 0.0781-0.18643 0.054622-0.36133 0.10884-0.66207 0.20524-0.12316 0.03948-0.28698 0.089484-0.36403 0.11111-0.14112 0.039613-0.22269 0.048574-0.25758 0.028296-0.021356-0.012414-0.045335-0.065893-0.045335-0.10111 0-0.065815 0.042094-0.099254 0.23194-0.18423 0.24785-0.11094 1.164-0.37231 1.5936-0.48246 0.21089-0.054066-1.4894 0.32404 0.28235-0.063077 0.033342-0.00464 0.063198-0.011658 0.091202-0.013977z" style="stroke-linejoin:round;stroke-width:.058878"/><path id="body-dark" d="m4.0854 6.3463c0.029953 0.032431 0.12101 0.10556 0.17328 0.13846 0.058724 0.03696 0.072527 0.039141 0.12075 0.08409 0.051438 0.047942 0.056733 0.070441 0.024341 0.10339-0.070572 0.071789-0.18552 0.1244-0.26532 0.18528-0.091708 0.069961-0.37204 0.30378-0.57914 0.56013-0.034131 0.042248-0.087562 0.096619-0.11874 0.12083-0.031176 0.02421-0.056688 0.0471-0.056688 0.050868 0 0.00377 0.020812 0.014778 0.046248 0.024455 0.079451 0.030225 0.34467 0.16948 0.41522 0.21802 0.063706 0.04383 0.032687 0.017522 0.12271 0.083729 0.036515 0.026854 0.066709 0.052889 0.070893 0.053036 0.00418 1.471e-4 0.00997-0.00742 0.012874-0.016791 0.0029-0.00937 0.010109-0.025802 0.016012-0.036511 0.0059-0.01071 0.02233-0.041465 0.036512-0.068326 0.014181-0.026861 0.060508-0.10149 0.10295-0.16586 0.042446-0.064368 0.081569-0.12398 0.086924-0.13247 0.17071-0.27069 0.50438-0.5756 0.77666-0.70973 0.14274-0.071024 0.19724-0.10806 0.41117-0.14082 0.07383-0.011306 0.40126-0.046264 0.64967-0.22915l0.030901-0.025786-0.061366 0.011733c-0.07974 0.01523-0.22698 0.039148-0.29076 0.049823-0.17866 0.029902-0.5884 0.076806-1.1014 0.01082-0.21628-0.02782-0.41168-0.12426-0.62372-0.16923z" style="stroke-width:.036799"/><path id="rect249" d="m5.104 4.1046c-0.047526 0.00772-0.090121 0.040727-0.11811 0.096242-0.00675 0.013387-0.015148 0.049816-0.018655 0.080952-0.00775 0.068752 0.00773 0.10731 0.063134 0.15736 0.036104 0.032617 0.041444 0.034305 0.1087 0.034305 0.094662 0 0.13294-0.024535 0.16299-0.10449 0.035947-0.09564 0.00852-0.17358-0.082778-0.23519-0.021924-0.014796-0.044358-0.024176-0.066462-0.028372-0.016578-0.00315-0.032973-0.00337-0.048815-7.987e-4z" style="fill:#f4fffe;stroke-linejoin:round;stroke-width:.058878"/><circle id="path1" cx="4.2333" cy="4.2333" r="3.8401" style="fill:none;stroke-linejoin:round;stroke-width:.78646;stroke:url(#linearGradient3)"/></svg>
