<?xml version="1.0" encoding="UTF-8"?>
<svg id="svg1" width="458.68mm" height="458.68mm" version="1.1" viewBox="0 0 458.68 458.68" xml:space="preserve" xmlns="http://www.w3.org/2000/svg" xmlns:xlink="http://www.w3.org/1999/xlink"><style id="style1">#body-light{fill:#6b839e}#body-dark{fill:#536f8e}#whiskers{fill:#333333}@media(prefers-color-scheme:dark){#body-light,#whiskers{fill:#fcfffe}#body-dark{fill:#c6dbe6}}</style><defs id="defs1"><radialGradient id="radialGradient360" cx="737.27" cy="261.81" r="28.663" gradientTransform="matrix(.49098 -.14444 .22373 .76049 -206.94 135.35)" gradientUnits="userSpaceOnUse"><stop id="stop359" style="stop-color:#004e81" offset="0"/><stop id="stop360" style="stop-color:#1e2938" offset="1"/></radialGradient><linearGradient id="linearGradient402" x1="101.25" x2="142.08" y1="379.72" y2="89.15" gradientTransform="translate(2.3667e-6 65.088)" gradientUnits="userSpaceOnUse"><stop id="stop363" style="stop-color:#16aefc" offset="0"/><stop id="stop364" style="stop-color:#4fe4ff" offset="1"/></linearGradient></defs><g id="layer1" transform="translate(143.5 -73.047)"><path id="path230" d="m184.63 208.66 12.695 39.566 44.631-0.90576-16.496-39.544z" style="fill:url(#radialGradient360);stroke-linejoin:round;stroke-width:1.6"/><g id="g367" transform="translate(0 65.088)"><path id="path229" d="m227.14 92.377-6.1879 8.3603-0.18664 2.9558s5.473 1.8178 10.232 5.0952c4.6381 3.1939 7.3599 5.4435 7.3599 5.4435l1.4164-2.7773-2.1941-9.3318-2.7773-7.4154-3.1939-5.1936z" style="fill:#333;stroke-linejoin:round;stroke-width:1.6"/><path id="path228" d="m149.31 147.94 0.80872-34.505 16.04-28.036 29.383 40.571z" style="fill:#333;stroke-linejoin:round;stroke-width:1.6"/></g><g id="g366" transform="translate(0 65.088)"><path id="path226" d="m109.14 193.99 1.9476-12.52 84.303 0.27823-0.41735 9.4598z" style="fill:#333;stroke-linejoin:round;stroke-width:1.6"/><path id="path227" d="m125.83 211.66 34.361-13.494 35.474-6.2601 0.69559 8.9033-68.166 20.311z" style="fill:#333;stroke-linejoin:round;stroke-width:1.6"/><path id="path225" d="m125.42 155.6 71.783 18.085-3.0605 8.7642-79.573-16.555z" style="fill:#333;stroke-linejoin:round;stroke-width:1.6"/></g><path id="whiskers" d="m308.3 229.81c-4.0161 0.42149-7.9697 1.3541-11.927 2.0849-4.7407 1.2879-9.6329 1.9994-14.28 3.6438-2.2065 0.65532-4.0981 1.1854-6.0541 1.88 0.44267 1.0694 1.0309 2.7035 1.6406 3.8573 9.7011-2.7063 10.44-2.7491 12.773-3.3319 5.0841-1.2278 7.9838-2.1523 12.004-3.1523 2.5068-0.78636 4.9362-0.77982 6.581-2.6284 0.90843-0.82208 0.77272-2.5346-0.73689-2.3534zm-29.08 20.208c-0.17134 0.90106-0.24873 1.9877-0.41043 3.8702 1.1566 0.1285 4.3891 0.31284 7.1785 0.39772 4.453 0.17228 17.009 0.77271 18.98 0.85625 3.2213 0.0893 5.4787 0.20043 8.0176 0.22078 2.8299 0.036 2.9754-3.9062 0.19106-4.0247-2.7479-0.20491-5.2245-0.39794-8.4577-0.53355-4.968-0.24771-8.5872-0.27569-12.868-0.60837-3.7499-0.12517-8.8795-0.19005-12.631-0.17836zm-2.0969 11.688c-0.3051 0.86266-0.52126 1.4248-0.89354 2.7741 4.9881 1.7156 13.983 5.3443 18.965 7.0786 5.2062 1.8411 9.3946 3.5382 14.312 5.4134 2.4588 0.82973 3.3304-2.3166 1.1673-3.0989-3.0651-1.3725-7.3254-2.6964-9.8136-3.8579-5.3374-1.9812-10.247-3.9482-15.664-5.7118-2.468-0.74404-4.4857-1.6309-6.9668-2.3023-0.46355-0.12543-1.1062-0.29523-1.1062-0.29523z" style="stroke-linejoin:round;stroke-width:1.6"/><path id="path217" d="m243.4 246.64 17.188-0.25032 3.5461 0.79267 0.49879 0.1693s1.5289 7.3563-5.2956 14.801c-6.8245 7.4449-15.111-7.9324-15.111-7.9324l-2.1271-5.9382z" style="fill:#333;stroke-linejoin:round;stroke-width:1.6"/><path id="body-light" d="m165.76 138.18c-1.0446 0.26218-2.7998 1.552-4.0607 2.9838-1.0939 1.2422-3.8492 4.8086-4.3682 5.6539-0.14552 0.23703-1.604 2.4094-3.2412 4.8276s-2.9766 4.4645-2.9766 4.547-0.5953 1.0322-1.3229 2.1105c-2.1531 3.1907-3.6918 6.1044-5.44 9.6573-2.6412 4.7748-4.4815 9.8497-6.1779 15.019-1.3636 3.9075-5.2577 15.876-7.52 20.39-0.2429 0.48474-0.44132 1.0036-0.44132 1.1529 0 0.25343-1.3078 3.0341-1.8433 3.9191-0.13207 0.21828-0.56397 1.0906-0.95963 1.9389-3.0159 4.5816-5.4922 9.4911-9.0992 13.804-0.5175 0.58208-1.5342 1.862-2.2588 2.8443-0.72462 0.98227-9.5579 11.745-13.753 16.328-1.0186 1.101-3.1618 3.4843-4.7625 5.2963s-3.2185 3.6159-3.5951 4.0085c-0.37664 0.39268-2.0032 2.1826-3.6142 3.9775-1.611 1.795-3.5479 3.8592-4.3041 4.5868-3.8886 3.7413-11.675 12.094-18.186 18.774-1.7099 1.7543-5.1925 5.4428-7.7391 8.1969-2.5466 2.7541-6.3573 6.8015-8.4682 8.9943-6.9461 7.2155-14.215 15.139-17.99 19.611-1.0914 1.2928-2.9964 3.4283-4.2333 4.7454-1.2369 1.3171-2.748 2.9583-3.3579 3.6468-6.3037 7.1153-3.2422 4.1782-8.8129 10.63-0.65484 0.75846-2.0836 2.4352-3.175 3.7259-1.0914 1.2907-2.7583 3.1876-3.7042 4.2158-0.94589 1.0282-2.3746 2.6824-3.175 3.6763-2.2201 2.7567-9.1395 11.001-10.999 13.106-0.5924 0.67043-2.041 2.4097-3.2194 3.8649-1.1785 1.4552-2.6287 3.167-3.2225 3.8039-1.7586 2.0577-3.3376 4.2634-5.0395 6.3826-2.6594 3.309-4.308 5.2867-5.7082 6.8476-0.73351 0.81776-2.2199 2.5583-3.3032 3.868-2.0242 2.4472-4.6612 5.4941-6.9996 8.0874-0.7304 0.81002-2.3401 2.6414-3.577 4.0695-8.1361 9.3936-28.58 30.205-37.441 38.114-2.6086 2.3283-5.7064 5.1263-6.8838 6.2177-1.1774 1.0914-3.0264 2.735-4.1093 3.6525-1.0829 0.9175-2.8618 2.4301-3.9532 3.361-4.0591 3.4624-12.071 10.023-14.397 11.789-3.0197 2.2929-11.414 8.8919-12.618 9.6402-2.985 1.8552-9.9793 7.4037-12.846 9.2909-3.7241 2.452-12.055 8.9992-14.114 11.092l-2.249 2.2856 1.3229-0.16071c0.72761-0.0883 0.97692-0.16068 1.9725-0.31678 0.99558-0.15611 3.9155-0.85514 5.4493-1.2904 7.3726-2.1536 8.3842-2.7042 9.8459-3.284 1.8492-0.73364 2.805-1.1289 5.04-2.1642 2.6177-1.2126 1.9601-0.84012 4.0184-1.7653 2.0154-0.90588 2.995-1.3221 4.2333-1.7989 1.653-0.6364 1.0076-0.44443 1.8691-0.81545l0.97823-0.4346c-0.0653 0.0407 0.22929-0.40996 0.31058-0.47853 0.14492 0 0.84828-0.73782 1.8671-1.6728 1.0188-0.93495 2.4777-2.0699 3.2422-2.5218 0.76444-0.45186 3.057-1.8611 5.0943-3.1321 2.0373-1.271 4.4185-2.7105 5.2917-3.1988 1.6083-0.89937 6.7075-4.0764 8.2496-5.1397 1.1296-0.77888 3.7051-2.3659 4.8472-2.9869 1.3396-0.72834 3.6919-2.2547 3.9248-2.436 0.15976-0.12437 5.9638-3.9723 8.1137-5.5449 2.3309-1.705 2.4446-1.7866 4.8948-3.5021 1.2369-0.866 2.9633-2.1124 3.8365-2.7698 5.1758-3.8973 11.737-8.5476 15.743-11.158 1.2369-0.80616 3.0824-2.1495 4.101-2.9853 2.1243-1.7431 8.8721-6.8287 10.054-7.5773 0.43656-0.27649 2.3416-1.67 4.2333-3.097 3.1902-2.4064 4.222-3.1274 7.7251-6.0756 1.2881-0.91984 2.4516-1.9737 3.652-2.9983 0.72761-0.60949 3.5851-2.6338 6.35-4.4979 2.7649-1.8641 5.2057-3.5805 5.424-3.8142 0.83748-0.89695 5.0858-4.2964 9.6247-7.7018 6.8426-5.1338 7.0558-5.2813 11.41-7.8827 4.1282-2.4666 6.6648-4.1666 8.9659-6.0094 1.3566-1.0865 9.985-6.8983 12.465-8.3964 0.7276-0.43945 3.2802-1.7992 5.6725-3.0215 5.2792-2.6973 6.2749-3.2477 8.4827-4.6876 7.2054-4.6993 13.263-7.9486 17.992-9.6511 1.1865-0.4272 1.8236-0.67121 2.6458-1.0139 0.3638-0.15162 1.4372-0.57296 2.3854-0.93586 0.94814-0.36289 2.3769-0.95547 3.175-1.3172s2.1654-0.92076 3.0386-1.2423c0.87312-0.32155 1.8256-0.68161 2.1167-0.79995 0.29104-0.11835 1.3031-0.46177 2.249-0.76326 4.1267-1.3153 6.7845-2.1891 7.276-2.3916 0.29104-0.11988 1.184-0.36029 1.9844-0.53433 0.80037-0.17404 1.7529-0.41413 2.1167-0.53382 1.1443-0.37648 6.2568-1.4348 10.186-2.1084 5.1487-0.88249 27.146-1.3185 29.898-0.59273 0.7276 0.19191 1.8587 0.47088 2.5135 0.62012 0.65485 0.14925 1.4883 0.36256 1.8521 0.47387 0.3638 0.11131 1.1377 0.34546 1.7198 0.5209 0.58208 0.17544 1.2964 0.41835 1.5875 0.5395 0.29104 0.12115 1.4349 0.57431 2.542 1.0072 2.4751 0.9678 5.4854 2.9706 7.9246 5.2715 2.5518 2.4073 3.589 3.9202 4.4664 6.5159 0.63877 1.8896 0.73206 2.5067 0.60926 4.0364-0.13165 1.6402-0.25103 1.9355-1.2955 3.2179-0.54611 0.67047-0.82811 0.97966-0.98702 1.0568l-0.07234 0.23978c-1.1299 1.5798-2.1433 3.104-3.6912 4.3444-2.2954 1.777-4.917 2.5266-6.6446 3.3104-1.8337 0.83197-4.0533 2.8935-4.8214 6.5955-0.18117 0.87313-0.44327 1.8736-0.58188 2.2231-0.0458 0.11536 0.02582 0.15227 0.00672 0.25063l0.20412 0.35295c-0.017-0.25399 0.15697-0.39979 0.56689-0.14676 3.7201 2.2962 7.755 3.9631 12.295 5.0798 1.5742 0.38717 7.0904 0.40476 8.9721 0.02842 0.77509-0.155 2.0641-0.40985 2.8644-0.56637 1.5088-0.29507 4.2375-1.0917 5.1594-1.5059 4.9171-2.2092 6.8129-3.446 10.416-6.7965 5.9577-5.5394 7.1852-7.6893 8.1974-12.239l0.27751-1.248c0.60817-1.1477 0.17839-8.9221 0.02222-10.505-0.15621-1.5832-0.35622-3.3471-2.8055-8.5959-1.2092-2.5914-2.3439-4.8971-3.7719-7.0817-0.38204-0.58449-0.81358-1.2542-0.95911-1.4878-2.3387-3.7546-6.9028-8.5707-11.151-11.767-1.6217-1.2203-3.0292-2.219-3.1275-2.219s-0.69409-0.35471-1.324-0.78807c-0.97925-0.67374-4.6463-2.5121-6.3583-3.1874-3.6134-1.4254-9.7424-3.1043-13.891-3.8055-7.2714-1.229-8.9466-1.3471-19.05-1.3431-9.3871 4e-3 -9.7758 0.02471-13.891 0.7457-6.2427 1.0938-18.778 4.3773-27.12 7.1034-2.2383 0.73152-3.8204 1.0907-4.8948 1.1116-1.5485 0.0301-1.5898 0.01309-1.6722-0.70539-0.07-0.60924 0.22728-1.0464 1.7198-2.529 3.7663-3.7414 11.71-7.8727 22.817-11.867 6.8311-2.4565 7.1347-2.5387 13.361-3.6029 0 0 4.3063-0.63931 6.7639-0.84749 2.4576-0.20817 7.9422-0.23926 7.9422-0.23926 6.98 2e-3 8.7428 0.08059 10.848 0.48627 1.3824 0.26641 1.9983 0.35204 3.5719 0.67748 1.5735 0.32545 5.1808 0.87127 7.8714 1.557 2.1103 0.56154 3.2794 0.90572 3.7703 1.11 0.29104 0.12112 1.6603 0.59498 3.0427 1.0532 1.3824 0.45818 2.7814 1.0035 3.1089 1.2113 0.32742 0.20784 0.59531 0.27488 0.59531 0.14935 0-0.12552 0.69327-0.76629 1.5405-1.4242 0.8472-0.65792 2.2992-2.136 3.2267-3.284 0.92752-1.1481 2.5832-3.014 3.6794-4.1465 1.0962-1.1326 2.7359-2.2858 2.8541-2.497 0.26768-0.47832 7.0539-6.9366 9.2046-8.5773 1.2371-0.94377 5.24-2.8207 7.2972-4.9134 0.88025-0.89542 0.78406-1.571-0.54002-2.9487-1.9276-2.0057-4.2045-2.9216-7.6791-5.686 1.0862 0.27667 1.8394 0.30459 7.1128 2.1291 3.8892 1.3456 5.7932 2.2238 9.5736 2.5864 6.4425 0.61797 20.637 1.5167 28.971-0.32091 3.1994-0.70543 8.2954-1.4426 10.24-2.0857 0.80582-0.64113 0.77107-0.56989 1.6454-1.2511 1.668-1.2995 5.424-4.9008 5.424-5.1056 1.448-1.5031 2.2321-2.4502 3.3838-4.2607 0.69711-0.98279 1.4804-2.3823 1.7405-3.1099 0.44252-1.238 0.57405-1.5759 1.2072-3.1089 0.13523-0.32742 0.47864-1.2736 0.76326-2.1027l0.51728-1.5074-0.65164 0.42684c-0.99915 0.65467-3.4252 0.56066-4.9826-0.19327-1.6181-0.78332-4.8114-3.7908-6.6389-6.2523-2.9112-3.9213-4.0939-6.9516-3.1864-8.1644 0.38176-0.51017 0.75369-0.53178 10.339-0.60978 8.0447-0.0655 9.7646 0.056 10.113 0.19431 0.1038-0.5886-0.34103-1.35-0.48938-1.7198-2.466-6.2611-4.131-10.432-6.0064-15.784-0.1952-0.60059-0.4069-1.7988-0.55242-2.4536-0.14553-0.65485-0.3732-1.6966-0.50591-2.3151-0.22556-1.0511-1.0437-4.1717-1.6474-6.2838-0.85096-3.1292-2.331-6.0666-3.7352-8.9958-3.9187-8.1749-11.407-16.698-21.338-24.284-0.80194-0.61261-8.2306-4.439-9.6831-4.9878-4.4842-1.9007-9.1379-3.4844-13.824-4.8354-2.5875-0.68335-3.7772-0.84833-5.0493-0.93483-2.4932-0.16949-1.4623-0.16149-5.3242-0.47594-3.862-0.31444-4.1824-0.48277-4.5093-1.2159-0.26749-0.60002-0.28522-0.54014-0.78806-1.8955-0.72728-1.9603-4.0884-8.663-5.0658-10.102-0.5641-0.83068-1.0253-1.5818-1.0253-1.6692s-0.56555-1.0201-1.2568-2.0727c-0.69123-1.0526-1.3758-2.099-1.5214-2.3254-6.6606-10.365-13.639-17.489-16.442-16.786v-5.2e-4zm66.566 0.70849c-0.16378-0.01104-0.33401-0.00675-0.51315 0.0124-0.71655 0.0766-1.5708 0.3962-2.6774 0.971-4.7315 2.4577-8.2807 4.9234-12.913 8.9716-3.5117 3.0685-15.338 15.123-15.338 15.588 1.1601 0.143 2.1522 0.33152 2.22 0.34674 3.5959 0.80759 5.6833-0.54243 14.42 2.8484 0.36381 0.14121 2.5574 0.84964 3.237 1.1544 0.45526-0.88137 0.42544-0.79352 0.7028-1.3699 0.69213-1.4384 3.0604-4.4436 4.902-6.9246 1.0271-1.3837 3.1481-3.6417 4.0638-3.9026 0.66333 0 1.5182 1.2996 2.959 4.4979 2.008 4.4574 3.7002 9.8862 4.2473 13.626 0.17029 1.1642 0.44747 2.6524 0.61598 3.3073 0.1685 0.65484 0.0956 1.1412 0.0956 1.2868 0 0.22145 3.4006 2.2062 3.6675 2.4174 0.24805 0.19637 2.5583 1.9343 4.084 3.5031l1.7198 1.7684 0.08165-1.5115c0.0449-0.8312 0.02509-2.7016-0.04341-4.1569-0.11988-2.5458-0.25897-3.6376-0.9772-7.6729-0.51048-3.4522-1.3659-6.8424-2.3683-10.186-0.52482-1.7225-0.91439-3.4908-1.603-5.1594-0.12473-0.29104-0.51927-1.4221-0.87644-2.5135-0.68756-2.101-1.521-4.2902-2.2159-5.8208-2.8808-6.3461-4.7718-9.5999-6.15-10.581-0.41803-0.29766-0.84866-0.46607-1.34-0.49919zm-65.857 16.901c1.3943 0 6.2487 6.173 10.176 12.94 4.1438 7.1401 7.2771 15.189 7.2771 18.694 0 0.7979-0.0828 0.90951-0.67282 0.90951-1.988 0-10.492 2.3289-13.524 3.7036-3.1672 1.4361-5.8581 3.3942-9.4392 6.8688-2.5023 2.4279-4.6154 4.976-6.0973 7.353-0.38556 0.61846-0.81255 1.1245-0.9493 1.1245-0.34155 0-0.44837-7.3193-0.21187-14.533 0.22291-6.7989 0.74889-11.025 1.879-15.1 1.3488-4.864 4.0438-10.847 6.7345-14.949 0.85898-1.3097 2.2326-3.423 3.052-4.6964s1.6183-2.3151 1.7756-2.3151zm42.985 53.34c4.7716 0.0165 7.0124 0.46974 10.201 2.0624 4.0231 2.0095 7.0324 5.2833 9.4837 10.317 1.0056 2.065 4.9892 17.515 4.7062 18.252-0.10698 0.27879-0.42479 0.34716-1.1596 0.24856-0.55681-0.0747-2.4397 0.0581-4.1842 0.29559-2.9759 0.40515-3.8771 0.55446-7.5375 1.2454-2.0719 0.39111-9.485 0.51967-10.451 0.18138-4.4241-1.5492-5.9123-2.3673-8.707-4.7878-3.1778-2.7524-5.1103-6.0071-7.5504-12.716-1.9952-5.4855-2.4714-6.5112-3.4649-7.4631-1.4262-1.3663-1.1579-1.7838 2.1937-3.4163 2.8702-1.398 7.7579-3.1589 10.782-3.8845 0.90933-0.2182 3.0432-0.34386 5.6886-0.33486zm-83.224 15.463c1.0053-9e-3 2.2067 0.0709 3.4013 0.24288 0.97391 0.14025 2.7234 0.38556 3.8876 0.54518 2.0619 0.2827 6.3358 1.0721 8.4667 1.5637 0.58208 0.1343 3.0585 0.61403 5.503 1.0661 2.4446 0.45207 7.7428 1.6342 11.774 2.6267s9.2938 2.253 11.695 2.8014 6.1516 1.5107 8.3344 2.1384c2.1828 0.62769 5.5761 1.5564 7.5406 2.0634 4.6231 1.1933 5.7859 1.6251 6.6766 2.4784 1.3488 1.2922 0.78616 3.5977-1.1152 4.5677-0.94248 0.48079-3.3223 0.445-3.7476 0.40566-0.248-0.0229-2.278-0.33366-4.0576-0.66146-1.884-0.34704-3.5842-0.79014-6.8843-1.4242-7.2945-1.4015-9.2846-1.9085-12.435-2.5259-3.0936-0.60622-6.18-1.2474-9.2604-1.9177-3.9445-0.81571-7.8561-1.7778-11.774-2.7109-4.5314-0.97702-9.0748-1.9124-13.626-2.7947-2.5549-0.48915-5.7166-1.3338-6.49-1.7338-1.2458-0.64424-1.6538-1.5046-1.4604-2.9719 0.17024-1.2913 0.77752-2.8763 1.4842-3.1982 0.41057-0.18707 1.0824-0.55127 2.0877-0.56069zm33.239 23.809c4.7664-0.0392 9.7238-0.03591 14.264 0.00465 9.0799 0.0811 16.49 0.31123 17.362 0.64596 1.1746 0.45073 1.4761 3.1852 0.52142 4.7299-1.109 1.7944-2.5249 1.9501-20.659 2.2738-8.0764 0.14415-16.947 0.32783-19.711 0.40773-11.264 0.32553-13.775 0.39201-20.108 0.53382-3.638 0.0815-7.0313 0.18788-7.5406 0.23668-1.4054 0.13461-5.8492-0.27987-6.7469-0.62942-2.4642-0.95959-3.5414-3.6771-2.0309-5.1242 1.4875-1.4251 4.9354-1.9332 15.525-2.2867 4.6567-0.15546 11.86-0.39908 16.007-0.54157 3.7761-0.12973 8.3516-0.21143 13.118-0.25063zm31.032 10.6c0.76101-0.06303 1.4717 0.00121 2.1766 0.38447v5.2e-4c1.2105 0.65827 1.5716 2.0452 1.5736 2.8649 1e-3 0.80837-0.93335 2.0315-1.8996 2.5947-0.76726 0.4472-4.1636 1.4124-8.1654 2.5947-4.0018 1.1822-8.5857 2.5462-10.186 3.0313-1.6007 0.48516-4.8154 1.4402-7.1438 2.1224-5.0662 1.4843-9.8191 2.9578-17.992 5.5774-3.347 1.0728-7.7986 2.4317-9.8924 3.0194-3.8348 1.0765-6.0516 1.32-6.9996 0.76895-0.58035-0.33735-1.232-1.7906-1.232-2.7476 0-1.7885 1.1439-2.6972 6.303-5.0064 6.7353-3.0147 31.631-10.118 43.306-13.111 5.7308-1.4692-40.473 8.8056 7.6729-1.7141 0.90605-0.12616 1.7174-0.31679 2.4784-0.37982zm19.742 85.685c-0.13964 0.16644-0.01841 0.51869 0.11885 0.77515 0.24551 0.45874 3.202 4.498 4.1553 5.6772 0.21519 0.26616 0.76723 1.0996 1.2268 1.8521s1.7367 2.559 2.8381 4.0142c3.9438 5.211 6.4761 8.4965 7.9747 10.347 3.1906 5.4875 9.9487 11.928 12.134 17.189 2.7459 3.8721 4.9632 8.0762 7.4786 12.085 0.48471 0.76435 1.3674 2.4016 1.9611 3.6385 4.7576 9.9109 5.0499 10.58 5.9046 13.494 0.3201 1.0914 0.75941 2.5202 0.97617 3.175 0.66435 2.007 1.9871 7.558 2.4588 10.319 0.64172 3.7563 0.88337 4.6917 1.6082 6.2177 0.41471 0.87313 0.90887 1.7674 1.0976 1.9875 0.46394 0.54091 1.5913 0.9229 2.3787 1.1193 0.38673 0.0965 0.44318 0.10909 0.58757 0.13746 0.17923 7e-3 0.71093-0.37686 1.6991-1.4573 5.4646-5.9746 5.1208-12.196 3.9987-18.654-0.46822-1.85-0.74594-2.973-1.0635-4.2995-0.34375-1.4359-1.6413-5.4398-2.7864-8.599-0.67764-1.8696-3.8337-8.3384-5.2493-10.76-0.35451-0.60633-1.3663-2.1927-2.2484-3.5248-0.88213-1.3321-1.6035-2.4912-1.6035-2.5761-2.6433-4.0529-4.3988-6.2619-7.8548-10.458-7.7951-9.7904-16.496-18.242-23.917-23.232-1.2864-0.86495-2.3898-1.5725-2.452-1.5725s-1.5845-0.96611-3.3832-2.1466c-2.7385-1.3131-6.0701-3.534-8.0378-4.748z" style="stroke-linejoin:round;stroke-width:1.6"/><path id="body-dark" d="m188.44 279.71c0.81396 0.8813 3.2884 2.8686 4.7088 3.7626 1.5958 1.0044 1.9709 1.0636 3.2815 2.2851 1.3978 1.3028 1.5417 1.9142 0.66146 2.8096-1.9178 1.9508-5.0416 3.3806-7.2099 5.0348-2.4921 1.9012-10.11 8.255-15.738 15.221-0.92751 1.1481-2.3795 2.6256-3.2267 3.2835-0.84721 0.65791-1.5405 1.2799-1.5405 1.3823s0.56555 0.4016 1.2568 0.66456c2.1591 0.82136 9.3663 4.6056 11.284 5.9247 1.7312 1.1911 0.88825 0.47614 3.3347 2.2753 0.9923 0.72976 1.8128 1.4372 1.9265 1.4412 0.11371 0.00362 0.27105-0.20163 0.34985-0.4563 0.07881-0.25466 0.27472-0.70115 0.43511-0.99219s0.6068-1.1268 0.99219-1.8567c0.38538-0.72994 1.6443-2.758 2.7978-4.5072 1.1535-1.7492 2.2166-3.369 2.3621-3.5998 4.6392-7.3559 13.706-15.642 21.106-19.287 3.879-1.9301 5.36-2.9364 11.173-3.8266 2.0063-0.30723 10.904-1.2572 17.655-6.227l0.83974-0.70073-1.6676 0.31884c-2.1669 0.41388-6.1681 1.0638-7.9013 1.3539-4.855 0.81257-15.99 2.0872-29.93 0.29404-5.8774-0.75599-11.187-3.3769-16.949-4.5987zm11.493 59.299c-0.08481-0.01867-0.15869-0.00874-0.20154 0.03411-0.23977 0.23977 0.51514 0.86074 0.73794 1.481 0.23962 0.66716 0.16085 0.48805 0.89038 2.1316 0.27382 0.61688 0.64319 1.5386 0.82062 2.0479 0.39775 1.1417 0.78605 2.104 1.0935 2.7084 0.66502 1.5531 1.0712 3.2097 1.4035 4.9646 0.123 0.64959 0.29894 2.0836 0.4625 3.175 0.27945 1.8648 0.40696 6.7072 0.27854 10.583-0.0313 0.94588-0.03959 2.6723-0.01809 3.8364 0.05565 3.0181-0.33637 6.2053-0.48576 7.4869-0.1494 1.2816-0.66219 3.8778-1.1834 4.886-0.90246 1.7457-1.1018 1.4824 2.5637 3.3858 1.4503 0.75315 2.9347 1.574 3.2985 1.8242 0.36381 0.25015 0.84005 0.52438 1.0583 0.60978 0.21828 0.08538 1.3494 0.82263 2.5135 1.6381s2.9581 2.0638 3.9868 2.774c2.2372 1.5445 7.3479 6.5138 9.5415 9.2775 3.463 4.3629 5.3385 7.8466 8.3628 13.891 1.9612 3.9194 1.945 3.8833 2.8474 6.35 0.31942 0.87312 0.67607 1.8256 0.79272 2.1167 0.11665 0.29104 0.36371 0.94589 0.54932 1.4552 0.15638 0.42912 2.6643 5.2526 4.5899 7.0652 0.68119 0.7572 1.9592 1.9185 2.8401 2.5807 1.6693 1.2548 5.7728 3.4876 8.029 3.6411 3.167 0.21558 5.3097-0.18921 7.3892-1.5058 0.8536-0.54045 0.9155-0.60189 1.1824-0.76223-0.96674-0.1482-2.708-0.7574-3.0939-1.2175-0.18874-0.22507-0.6829-1.1231-1.0976-1.9963-0.7248-1.526-0.96645-2.4614-1.6082-6.2177-0.47163-2.7607-1.7944-8.3117-2.4588-10.319-0.21676-0.65484-0.65607-2.0836-0.97617-3.175-0.85467-2.9141-1.1475-3.5828-5.9051-13.494-0.59377-1.2369-1.4759-2.8747-1.9606-3.6391-3.5724-5.8781-6.6106-11.693-10.589-17.311-3.476-4.909-7.554-10.148-9.0232-11.962-1.4986-1.8507-4.0309-5.1362-7.9747-10.347-1.1014-1.4552-2.3785-3.2617-2.8381-4.0142s-1.0116-1.5859-1.2268-1.8521c-0.95335-1.1792-3.9098-5.2184-4.1553-5.6772-0.14895-0.27841-0.20407-0.6141-0.12247-0.74621 0.08165-0.13212-1.1336-0.88602-2.7001-1.6754-4.0973-2.0645-6.9878-3.597-7.3474-3.8954-0.0858-0.07123-0.18133-0.11879-0.26613-0.13746zm-65.06 6.2766c-7.7508-0.10909-21.103 0.37224-24.895 1.0222-3.9297 0.67355-9.0422 1.7314-10.186 2.1079-0.98403 0.32374-3.6609 0.82557-4.4354 1.0687-1.2034 0.37772-6.3039 2.0156-8.9121 2.9037-2.6082 0.88809-5.223 1.9192-9.0547 3.4158-13.156 5.3431-24.869 11.904-36.732 19.504-12.821 8.2132-23.048 15.021-33.785 22.682-6.0291 4.302-7.5565 5.9055-14.189 10.929-3.3602 2.5141-6.4259 4.6237-9.5953 7.3815-3.5031 2.9482-4.8579 3.9782-8.0481 6.3846-1.8918 1.427-3.7968 2.821-4.2333 3.0975-1.1821 0.74864-7.9298 5.8337-10.054 7.5768-1.0186 0.83585-2.8641 2.1792-4.101 2.9854-4.006 2.6109-10.567 7.2617-15.743 11.159-0.87312 0.65745-2.5995 1.9038-3.8365 2.7698-2.4502 1.7155-2.5639 1.7966-4.8948 3.5016-2.1499 1.5726-8.0162 5.3692-8.2171 5.4937-6.4644 4.0081-5.7407 3.4557-8.6687 5.4746-1.5421 1.0633-6.6413 4.2398-8.2496 5.1392-0.87313 0.48826-3.2544 1.9278-5.2917 3.1988-2.0373 1.271-4.3298 2.6808-5.0943 3.1326-0.76445 0.45187-2.2234 1.5863-3.2422 2.5213-0.75102 0.68133-1.9167 1.7069-1.9167 1.7069-0.11376 0.16922-0.37322 0.51069-0.26407 0.45889 0.10914-0.05183 0.4961-0.22219 0.8599-0.37879 0.3638-0.15661 1.1972-0.52595 1.8521-0.82062 1.9361-0.86936 3.8795-1.5679 5.8208-2.3838 2.3387-0.94926 3.8688-1.7112 8.4005-3.6597 8.2994-3.8605 16.482-8.0598 24.474-12.51 17.548-9.8574 20.132-11.471 27.529-16.131 4.5428-3.0653 8.7028-5.4365 9.3147-5.8575 2.3636-1.6262-2.6033 2.3218 28.411-18.719 3.0565-2.0737 5.6599-3.7703 5.7852-3.7703 2.7421-1.6638 26.14-18.174 38.631-25.701 1.6792-1.012 1.354-0.88566 3.6964-2.1394 0.8907-0.47674 2.6993-1.4917 4.0194-2.2557 11.583-6.6487 9.1523-5.185 11.136-6.1939 3.4608-1.7603 12.15-6.3782 15.61-7.9618 9.6886-4.4629 13.991-5.723 16.536-6.827 4.7754-1.6682 9.6205-3.1493 14.42-4.7434 4.5283-1.2643 15.037-3.5268 20.505-4.0044 3.3005-0.38597 18.007-1.8201 26.326 2.1037 6.245 2.9457 6.2067 6.3494 6.1743 8.1597l-0.03876 2.1621 1.125-1.3813c1.017-1.2486 1.1386-1.5541 1.2697-3.1869 0.1228-1.5298 0.02998-2.1474-0.60874-4.037-0.8774-2.5957-1.9146-4.1081-4.4664-6.5154-2.4391-2.301-5.6572-4.5409-8.1323-5.5087-3.3556-1.3115-6.5794-2.2995-9.6883-3.0324-0.77722-0.18321-2.738-0.28506-5.3216-0.32143zm59.055 23.628-0.24184 1.0583c-0.13301 0.58209-0.39183 1.6671-0.59531 2.3487-0.80365 2.6919-2.5883 5.3955-7.6094 10.064-3.6036 3.3505-5.4993 4.5878-10.416 6.797-0.9219 0.41419-3.6506 1.2103-5.1594 1.5053-0.80037 0.15652-2.0893 0.41137-2.8644 0.56637-1.8817 0.37635-7.3979 0.3593-8.9721-0.0279-4.5398-1.1167-8.5748-2.7841-12.295-5.0803-0.54832-0.33844-0.84998-0.17274-0.74207 0.42271 0.09601 0.52976 0.36206 1.7238 1.1431 3.9093 1.0141 2.8377 5.2866 7.2708 8.3845 8.4605 2.1018 0.85149 4.1574 1.6941 6.4823 1.8397 2.6951 0.37346 6.9622-6.4e-4 9.525-0.83509 6.3416-2.0649 14.305-8.0865 17.766-13.434 2.3754-3.6706 3.912-7.2134 5.0131-12.405 0.16973-0.80037 0.35294-1.8156 0.40514-2.2526 0.05226-0.4376 0.15171-1.2366 0.16071-1.8335l0.01602-1.1033z"/><path id="rect249" d="m216.12 218.79c-1.2915 0.20992-2.449 1.1068-3.2096 2.6154-0.18342 0.3638-0.41165 1.3537-0.50695 2.1999-0.21052 1.8683 0.21006 2.916 1.7157 4.2762 0.98112 0.88635 1.1262 0.93224 2.9538 0.93224 2.5724 0 3.6125-0.66672 4.4292-2.8396 0.97685-2.599 0.23143-4.717-2.2495-6.3913-0.59578-0.40209-1.2054-0.65698-1.8061-0.77101-0.45049-0.0855-0.89603-0.0917-1.3265-0.0217z" style="fill:#f4fffe;stroke-linejoin:round;stroke-width:1.6"/><path id="circle384" d="m121.67 152.81c-80.873 0-146.71 65.839-146.71 146.71 0 20.414 4.2065 39.865 11.78 57.546 0.14766-0.17798 0.29354-0.35748 0.44132-0.53536 6.1804-7.5018 12.535-14.858 18.826-22.268-3.284-10.999-5.07-22.655-5.07-34.743 0-66.835 53.902-120.74 120.74-120.74 2.62 0 5.2119 0.11224 7.7897 0.27544 1.3533-3.864 2.7669-7.7039 4.4483-11.435 2.1892-4.63 4.6932-9.0939 7.3458-13.469-6.4121-0.86033-12.941-1.3467-19.584-1.3467zm144.34 120.64c-0.0448 0.1258-0.0528 0.26095-0.10645 0.38448-0.66835 1.895-1.9566 3.2092-3.3817 4.8824-2.0889 2.3444-4.2685 4.5312-6.5515 6.6962-3.9712 3.8996-8.601 7.1762-13.684 9.4501 0.0584 1.5482 0.11731 3.0963 0.11731 4.6591 0 17.117-3.5547 33.375-9.9374 48.107 0.70044 0.52581 1.4451 0.99007 2.1311 1.5353 5.4551 4.2296 10.288 9.1854 14.908 14.296 0.8888 0.99757 1.7382 2.034 2.6112 3.0479 10.367-20.099 16.262-42.863 16.262-66.986 0-8.9005-0.84118-17.604-2.3683-26.072zm-67.133 118.99c-20.909 17.379-47.804 27.821-77.209 27.821-26.588 0-51.112-8.5522-71.027-23.033-4.4976 2.6512-8.9462 5.382-13.305 8.2372-3.251 2.1619-6.4835 4.3516-9.725 6.5278 25.489 21.354 58.296 34.242 94.057 34.242 37.658 0 72.046-14.286 98.054-37.707-3.5561-4.531-8.0015-8.3496-12.807-11.425-2.5192-1.8098-5.4665-2.9521-8.0383-4.6628z" style="fill:url(#linearGradient402);stroke-linejoin:round"/></g></svg>
